#!OML:ASF Y:\EmotionMaleHayes\Project 1\Capture day 1\Session 1\Male1.ASF
:FULLY-SPECIFIED
:DEGREES
237
root 15.9834 15.7657 0.251619 -57.5273 88.5904 -65.946
lowerback 20.6312 1.64209 1.60037
upperback 6.29739 2.77532 -1.59003
thorax -4.52995 1.54394 -3.28908
lowerneck -29.7932 -0.165808 0.200753
upperneck 19.3687 -0.385496 0.266672
head 11.1426 -0.120747 -0.00133809
rclavicle -3.11098e-014 1.64991e-014
rhumerus -49.7389 30.6196 -101.427
rradius 89.5462
rwrist -19.4606
rhand -28.4744 -29.7904
rfingers 7.12502
rthumb -1.84409 -59.7622
lclavicle -3.11098e-014 1.64991e-014
lhumerus -55.9247 -22.6296 88.5395
lradius 71.9087
lwrist 12.8658
lhand -37.0614 -27.5936
lfingers 7.12502
lthumb -10.1339 2.14232
rfemur -3.06515 0.483049 19.2715
rtibia 88.6761
rfoot 387.307 50.4233
rtoes 20.8512
lfemur -35.346 7.0137 -22.1301
ltibia 54.05
lfoot 334.893 6.60868
ltoes -4.70861
238
root 16.4812 15.6865 0.231734 -89.0228 91.9872 -96.9478
lowerback 21.0638 1.46761 -1.40987
upperback 6.43426 1.92661 -2.4737
thorax -4.71925 1.14882 -2.33749
lowerneck -29.9556 -0.0169386 0.191173
upperneck 19.1473 -0.181294 0.285315
head 11.0867 -0.0272604 0.0431226
rclavicle -1.16289e-014 1.37161e-014
rhumerus -51.7833 28.7334 -101.706
rradius 86.8906
rwrist -19.027
rhand -28.3676 -31.3608
rfingers 7.12502
rthumb -1.74096 -61.3335
lclavicle -1.16289e-014 1.37161e-014
lhumerus -52.0507 -23.191 88.1256
lradius 71.6578
lwrist 12.897
lhand -37.7347 -29.2405
lfingers 7.12502
lthumb -10.7833 0.462667
rfemur -6.58965 -0.820394 15.3789
rtibia 87.4225
rfoot 447.185 71.1352
rtoes 23.1892
lfemur -33.5284 4.94597 -25.9041
ltibia 55.3248
lfoot 332.664 6.51432
ltoes -6.76153
239
root 16.9778 15.613 0.223075 -76.2233 95.7477 -83.5996
lowerback 21.6767 1.17059 -4.89899
upperback 6.52991 0.803151 -3.34816
thorax -4.96743 0.635634 -1.037
lowerneck -29.8206 0.140953 0.0904894
upperneck 18.757 0.0735686 0.312617
head 10.9167 0.0832236 0.113726
rclavicle -9.93923e-016 -4.45278e-014
rhumerus -53.8576 26.6579 -101.658
rradius 84.1559
rwrist -18.2275
rhand -28.3318 -32.2837
rfingers 7.12502
rthumb -1.70634 -62.2566
lclavicle -9.93923e-016 -4.45278e-014
lhumerus -47.96 -23.6195 87.6102
lradius 71.7137
lwrist 12.2538
lhand -38.0654 -28.2851
lfingers 7.12502
lthumb -11.1023 1.40127
rfemur -10.2619 -2.81714 11.1411
rtibia 82.0796
rfoot 514.999 53.2954
rtoes 21.8958
lfemur -30.2825 2.65203 -30.1193
ltibia 54.8105
lfoot 330.834 6.32799
ltoes -7.31441
240
root 17.4477 15.5269 0.217387 -80.5927 99.1925 -88.1821
lowerback 21.6775 1.37505 -8.64075
upperback 6.40893 0.272819 -4.16955
thorax -5.051 0.413419 0.311909
lowerneck -29.8202 0.220365 -0.1534
upperneck 18.3258 0.276298 0.357874
head 10.7546 0.162889 0.204058
rclavicle -2.127e-014 -3.49861e-014
rhumerus -55.7787 24.4676 -101.085
rradius 81.4053
rwrist -17.3493
rhand -28.6087 -31.6953
rfingers 7.12502
rthumb -1.97378 -61.666
lclavicle -2.127e-014 -3.49861e-014
lhumerus -43.5219 -24.1022 87.1006
lradius 71.449
lwrist 11.654
lhand -38.4053 -28.5378
lfingers 7.12502
lthumb -11.4302 1.13063
rfemur -15.9166 -3.61178 7.21156
rtibia 76.0859
rfoot 531.253 21.2868
rtoes 20.801
lfemur -26.8969 2.05084 -34.1556
ltibia 52.5862
lfoot 329.712 5.98753
ltoes -7.24673
241
root 17.9332 15.4556 0.214135 -78.4771 102.193 -86.1467
lowerback 21.7476 1.27396 -11.5694
upperback 6.43241 -0.450296 -4.79057
thorax -4.93615 0.0983645 1.44609
lowerneck -30.1089 0.197947 -0.630429
upperneck 18.0557 0.379433 0.640629
head 10.7003 0.213574 0.402261
rclavicle -7.7526e-015 -3.22031e-014
rhumerus -57.6548 22.3471 -100.124
rradius 78.8167
rwrist -16.5171
rhand -28.2794 -33.5669
rfingers 7.12502
rthumb -1.65579 -63.5403
lclavicle -7.7526e-015 -3.22031e-014
lhumerus -38.8966 -24.9039 86.6054
lradius 70.9713
lwrist 11.2664
lhand -39.0553 -29.4366
lfingers 7.12502
lthumb -12.057 0.196046
rfemur -21.0695 -5.29499 4.12639
rtibia 72.198
rfoot 530.871 19.1882
rtoes 21.6389
lfemur -23.4569 1.06106 -37.5477
ltibia 50.663
lfoot 328.766 5.60675
ltoes -7.17384
242
root 18.4308 15.3982 0.209935 -75.8011 103.864 -83.7805
lowerback 21.4106 0.979318 -13.1656
upperback 6.44801 -1.0855 -5.05362
thorax -4.61462 -0.205833 2.19646
lowerneck -30.9152 0.0381346 -1.0671
upperneck 18.1953 0.201255 1.24822
head 10.8872 0.185067 0.668609
rclavicle 2.36554e-014 3.33958e-014
rhumerus -59.6011 20.6317 -99.0032
rradius 76.5152
rwrist -15.9279
rhand -29.3047 -34.677
rfingers 7.12502
rthumb -2.64594 -64.6403
lclavicle 2.36554e-014 3.33958e-014
lhumerus -34.3334 -25.8033 85.9798
lradius 71.0262
lwrist 11.557
lhand -39.3641 -30.2028
lfingers 7.12502
lthumb -12.3547 -0.587844
rfemur -26.433 -6.79303 2.86386
rtibia 69.0645
rfoot 530.561 17.34
rtoes 22.5116
lfemur -20.8217 0.172888 -39.3834
ltibia 49.5892
lfoot 327.715 5.46482
ltoes -7.20914
